<?xml version="1.0" encoding="UTF-8" standalone="no"?>
<svg
   width="568"
   height="500.11728"
   viewBox="0 0 568 500.11728"
   fill="none"
   version="1.1"
   id="svg1"
   sodipodi:docname="bluesky_logo.svg"
   inkscape:version="1.3.2 (091e20e, 2023-11-25, custom)"
   xmlns:inkscape="http://www.inkscape.org/namespaces/inkscape"
   xmlns:sodipodi="http://sodipodi.sourceforge.net/DTD/sodipodi-0.dtd"
   xmlns="http://www.w3.org/2000/svg"
   xmlns:svg="http://www.w3.org/2000/svg">
  <defs
     id="defs1" />
  <sodipodi:namedview
     id="namedview1"
     pagecolor="#ffffff"
     bordercolor="#000000"
     borderopacity="0.25"
     inkscape:showpageshadow="2"
     inkscape:pageopacity="0.0"
     inkscape:pagecheckerboard="0"
     inkscape:deskcolor="#d1d1d1"
     inkscape:zoom="1.8486328"
     inkscape:cx="283.99366"
     inkscape:cy="230.71104"
     inkscape:window-width="3840"
     inkscape:window-height="2089"
     inkscape:window-x="1912"
     inkscape:window-y="-8"
     inkscape:window-maximized="1"
     inkscape:current-layer="svg1" />
  <path
     d="m 123.121,33.663939 c 65.12,48.888 135.16,148.017001 160.879,201.209001 25.719,-53.192 95.759,-152.321001 160.879,-201.209001 46.987,-35.2759996 123.121,-62.57 123.121,24.282 0,17.346 -9.945,145.713001 -15.778,166.555001 -20.275,72.453 -94.155,90.933 -159.875,79.748 114.875,19.551 144.097,84.311 80.986,149.071 -119.86,122.992 -172.272,-30.859 -185.702,-70.281 -2.462,-7.227 -3.614,-10.608 -3.631,-7.733 -0.017,-2.875 -1.169,0.506 -3.631,7.733 -13.43,39.422 -65.842,193.273 -185.702,70.281 -63.111,-64.76 -33.889,-129.52 80.986,-149.071 -65.72,11.185 -139.6,-7.295 -159.875,-79.748 C 9.945,203.65894 0,75.291939 0,57.945939 c 0,-86.852 76.134,-59.5579996 123.121,-24.282 z"
     fill="#1185fe"
     id="path1" />
</svg>
