<?xml version="1.0" encoding="UTF-8" standalone="no"?>
<!-- Uploaded to: SVG Repo, www.svgrepo.com, Generator: SVG Repo Mixer Tools -->

<svg
   fill="#000000"
   width="800px"
   height="800px"
   viewBox="0 0 24 24"
   role="img"
   version="1.1"
   id="svg4"
   sodipodi:docname="lifx.svg"
   inkscape:version="1.1.1 (3bf5ae0d25, 2021-09-20)"
   xmlns:inkscape="http://www.inkscape.org/namespaces/inkscape"
   xmlns:sodipodi="http://sodipodi.sourceforge.net/DTD/sodipodi-0.dtd"
   xmlns="http://www.w3.org/2000/svg"
   xmlns:svg="http://www.w3.org/2000/svg">
  <defs
     id="defs8" />
  <sodipodi:namedview
     id="namedview6"
     pagecolor="#ffffff"
     bordercolor="#666666"
     borderopacity="1.0"
     inkscape:pageshadow="2"
     inkscape:pageopacity="0.0"
     inkscape:pagecheckerboard="0"
     showgrid="false"
     inkscape:zoom="1.09125"
     inkscape:cx="352.80641"
     inkscape:cy="400"
     inkscape:window-width="3840"
     inkscape:window-height="2097"
     inkscape:window-x="1912"
     inkscape:window-y="-8"
     inkscape:window-maximized="1"
     inkscape:current-layer="svg4" />
  <path
     d="M 11.994133,0.83330826 C 9.5526745,0.83031009 7.2114573,1.8040439 5.4922309,3.5375357 3.7626814,5.2764779 2.7942573,7.6309327 2.799761,10.083529 c -0.00603,2.451832 0.962545,4.805562 2.6924699,6.543054 l 0.7936311,0.781875 0.041151,-0.04115 c 1.5080653,-1.501358 3.5508945,-2.341961 5.678878,-2.336806 2.126331,-0.0012 4.166779,0.838899 5.675938,2.336806 l 0.04409,0.04115 0.781874,-0.793632 c 1.726373,-1.739853 2.694301,-4.092046 2.69247,-6.543055 0,-2.3691381 -0.89651,-4.7382756 -2.69247,-6.5430535 -1.728892,-1.7251689 -4.07127,-2.69446452 -6.513661,-2.69540924 z m 0,2.13104874 c 1.877354,-0.00317 3.677879,0.7451817 4.999882,2.07814 2.578936,2.5983737 2.776918,6.725554 0.458543,9.558855 -3.326112,-2.155613 -7.6083737,-2.155613 -10.9344852,0 -1.0331586,-1.279223 -1.5974283,-2.873491 -1.5990206,-4.517823 0,-1.8165356 0.6878144,-3.6448285 2.0751998,-5.041032 1.3201244,-1.3357478 3.121875,-2.0846228 4.999881,-2.07814 z m 0,14.182496 c -1.522597,0 -3.0569524,0.593754 -4.2268247,1.763627 l 1.3050837,1.302144 c 1.619194,-1.622378 4.247803,-1.622378 5.866998,0 l 1.302144,-1.302144 c -1.175751,-1.169873 -2.704227,-1.763627 -4.247401,-1.763627 z m 0,3.891736 c -0.560892,-9.67e-4 -1.098354,0.224833 -1.490264,0.626088 l 1.490264,1.502022 1.493204,-1.502022 c -0.391451,-0.403706 -0.930889,-0.629888 -1.493204,-0.626088 z"
     id="path2"
     sodipodi:nodetypes="ccccccccccccccccccccsccccsccccc"
     style="stroke-width:2.93938" />
</svg>
