<?xml version="1.0" encoding="UTF-8" standalone="no"?>
<svg
   viewBox="0 0 24 24"
   width="24px"
   height="24px"
   version="1.1"
   id="svg1"
   sodipodi:docname="AdvssIcon.svg"
   inkscape:version="1.4.2 (f4327f4, 2025-05-13)"
   xml:space="preserve"
   xmlns:inkscape="http://www.inkscape.org/namespaces/inkscape"
   xmlns:sodipodi="http://sodipodi.sourceforge.net/DTD/sodipodi-0.dtd"
   xmlns="http://www.w3.org/2000/svg"
   xmlns:svg="http://www.w3.org/2000/svg"><sodipodi:namedview
     id="namedview1"
     pagecolor="#ffffff"
     bordercolor="#000000"
     borderopacity="0.25"
     inkscape:showpageshadow="2"
     inkscape:pageopacity="0.0"
     inkscape:pagecheckerboard="0"
     inkscape:deskcolor="#d1d1d1"
     inkscape:zoom="11.313709"
     inkscape:cx="53.961086"
     inkscape:cy="12.860505"
     inkscape:window-width="3840"
     inkscape:window-height="2089"
     inkscape:window-x="1912"
     inkscape:window-y="-8"
     inkscape:window-maximized="1"
     inkscape:current-layer="svg1" /><defs
     id="defs1" /><path
     style="fill:#9e8149;stroke-width:7.55906;stroke-linecap:round;stroke-linejoin:round"
     d="m 11.435242,4.4249417 h 1.027515"
     id="path2" /><g
     id="g3"
     transform="matrix(1.2045841,0,0,1.2045841,-41.095806,25.696287)"><path
       id="path1-1"
       style="fill:#000000;stroke-width:4.83172;stroke-linecap:round;stroke-linejoin:round"
       d="m 44.059358,-17.291617 a 1.3135659,1.3418144 0 0 0 -1.313347,1.342061 1.3135659,1.3418144 0 0 0 0.234704,0.766536 l -1.018718,2.126074 a 1.3135659,1.3418144 0 0 0 -0.01498,0 1.3135659,1.3418144 0 0 0 -1.313347,1.342062 1.3135659,1.3418144 0 0 0 0.285891,0.836448 l -0.686636,1.4344438 a 1.3135659,1.3418144 0 0 0 -1.262162,1.3408131 1.3135659,1.3418144 0 0 0 1.313346,1.3420615 1.3135659,1.3418144 0 0 0 1.313349,-1.3420615 1.3135659,1.3418144 0 0 0 -0.205991,-0.7228406 l 0.750306,-1.5617853 a 1.3135659,1.3418144 0 0 0 0.922588,-0.621717 h 1.98001 a 1.3135659,1.3418144 0 0 0 0.93757,0.624214 l 0.711604,1.5755187 a 1.3135659,1.3418144 0 0 0 -0.197252,0.7066102 1.3135659,1.3418144 0 0 0 1.313348,1.3420615 1.3135659,1.3418144 0 0 0 1.313346,-1.3420615 1.3135659,1.3418144 0 0 0 -1.284633,-1.3420612 l -0.667909,-1.4094777 a 1.3135659,1.3418144 0 0 0 0.304617,-0.860166 1.3135659,1.3418144 0 0 0 -1.313349,-1.342062 1.3135659,1.3418144 0 0 0 -0.03621,0 l -1.001237,-2.107347 a 1.3135659,1.3418144 0 0 0 0.248438,-0.785263 1.3135659,1.3418144 0 0 0 -1.313348,-1.342061 z m 0,0.885137 a 0.45664526,0.45664526 0 0 1 0.456925,0.456924 0.45664526,0.45664526 0 0 1 -0.456925,0.456925 0.45664526,0.45664526 0 0 1 -0.456925,-0.456925 0.45664526,0.45664526 0 0 1 0.456925,-0.456924 z m 0.06242,1.903852 0.933828,2.066151 a 1.3135659,1.3418144 0 0 0 -0.07865,0.141073 h -1.845185 a 1.3135659,1.3418144 0 0 0 -0.0362,-0.0724 z m -2.174765,2.330819 a 0.45664526,0.45664526 0 0 1 0.456924,0.456925 0.45664526,0.45664526 0 0 1 -0.456924,0.456926 0.45664526,0.45664526 0 0 1 -0.456925,-0.456926 0.45664526,0.45664526 0 0 1 0.456925,-0.456925 z m 4.214699,0 a 0.45664526,0.45664526 0 0 1 0.456923,0.456925 0.45664526,0.45664526 0 0 1 -0.456923,0.456926 0.45664526,0.45664526 0 0 1 -0.456928,-0.456926 0.45664526,0.45664526 0 0 1 0.456928,-0.456925 z m -5.877607,3.6117048 a 0.45664526,0.45664526 0 0 1 0.456925,0.4569251 0.45664526,0.45664526 0 0 1 -0.456925,0.4569262 0.45664526,0.45664526 0 0 1 -0.456925,-0.4569262 0.45664526,0.45664526 0 0 1 0.456925,-0.4569251 z m 7.525532,0 a 0.45664526,0.45664526 0 0 1 0.456926,0.4569251 0.45664526,0.45664526 0 0 1 -0.456926,0.4569262 0.45664526,0.45664526 0 0 1 -0.456925,-0.4569262 0.45664526,0.45664526 0 0 1 0.456925,-0.4569251 z" /><path
       id="path3-1-7"
       style="fill:#000000;fill-opacity:1;stroke-width:7.55906;stroke-linecap:round;stroke-linejoin:round"
       d="m 42.365234,-20.875 -2.060546,0.851562 -0.01367,1.212891 -0.673828,0.544922 -1.458985,-0.759766 -1.806641,1.892579 0.88086,1.255859 -0.44336,0.896484 -1.816406,-0.0059 -0.253906,2.390625 1.048828,0.757812 0.04492,1.087891 -1.054688,0.564453 0.3125,2.2207032 1.72461,0.1621094 0.443359,0.8261719 -0.865234,1.1777344 1.748047,2.0371093 1.365234,-0.7460937 0.75,0.4921875 0.04492,1.2539062 2.205078,0.8945313 0.910156,-1.3085937 h 1.363282 l 0.910156,1.3105468 2.205078,-0.8964844 0.04492,-1.2539062 0.75,-0.4921875 1.365234,0.7460937 1.748047,-2.0371093 -0.863281,-1.1777344 0.441406,-0.8261719 1.72461,-0.1601562 0.314453,-2.2226564 -1.056641,-0.564453 0.04492,-1.087891 1.048828,-0.755859 -0.253906,-2.392578 -1.816406,0.0059 -0.44336,-0.896484 0.882813,-1.255859 -1.808594,-1.892579 -1.458985,0.759766 -0.673828,-0.544922 -0.01367,-1.212891 -2.060546,-0.851562 -1.273438,0.933594 h -0.878906 z m 1.712891,2.441406 a 7.0625,7.0625 0 0 1 7.0625,7.0625 7.0625,7.0625 0 0 1 -7.0625,7.0625002 7.0625,7.0625 0 0 1 -7.0625,-7.0625002 7.0625,7.0625 0 0 1 7.0625,-7.0625 z" /></g></svg>
