<?xml version="1.0" encoding="UTF-8" standalone="no"?>
<!-- Generator: Adobe Illustrator 25.2.0, SVG Export Plug-In . SVG Version: 6.00 Build 0)  -->

<svg
   version="1.1"
   id="Layer_1"
   x="0px"
   y="0px"
   viewBox="0 0 2420.6243 543.20129"
   xml:space="preserve"
   sodipodi:docname="white-logo-mark.svg"
   inkscape:version="1.1.1 (3bf5ae0d25, 2021-09-20)"
   width="2420.6243"
   height="543.20129"
   xmlns:inkscape="http://www.inkscape.org/namespaces/inkscape"
   xmlns:sodipodi="http://sodipodi.sourceforge.net/DTD/sodipodi-0.dtd"
   xmlns="http://www.w3.org/2000/svg"
   xmlns:svg="http://www.w3.org/2000/svg"><defs
   id="defs135">
	
	

		
		
		
		
		
		
		
		
	
		
		
			<linearGradient
   id="SVGID_3_"
   gradientUnits="userSpaceOnUse"
   x1="532.11078"
   y1="1693.1064"
   x2="532.11078"
   y2="1224.0349"
   gradientTransform="matrix(0.9815,-0.1912,0.1912,0.9815,-171.0755,203.4616)">
			<stop
   offset="1.189722e-03"
   style="stop-color:#0062FF"
   id="stop40" />
			<stop
   offset="0.1512"
   style="stop-color:#2D5FFF"
   id="stop42" />
			<stop
   offset="0.3719"
   style="stop-color:#685BFF"
   id="stop44" />
			<stop
   offset="0.5751"
   style="stop-color:#9758FF"
   id="stop46" />
			<stop
   offset="0.7539"
   style="stop-color:#B956FF"
   id="stop48" />
			<stop
   offset="0.9015"
   style="stop-color:#CD55FF"
   id="stop50" />
			<stop
   offset="0.9995"
   style="stop-color:#D554FF"
   id="stop52" />
		</linearGradient>
		
		
			<linearGradient
   id="SVGID_4_"
   gradientUnits="userSpaceOnUse"
   x1="532.11078"
   y1="1693.1064"
   x2="532.11078"
   y2="1224.0349"
   gradientTransform="matrix(0.9815,-0.1912,0.1912,0.9815,-171.0755,203.4616)">
			<stop
   offset="1.189722e-03"
   style="stop-color:#0062FF"
   id="stop57" />
			<stop
   offset="0.1512"
   style="stop-color:#2D5FFF"
   id="stop59" />
			<stop
   offset="0.3719"
   style="stop-color:#685BFF"
   id="stop61" />
			<stop
   offset="0.5751"
   style="stop-color:#9758FF"
   id="stop63" />
			<stop
   offset="0.7539"
   style="stop-color:#B956FF"
   id="stop65" />
			<stop
   offset="0.9015"
   style="stop-color:#CD55FF"
   id="stop67" />
			<stop
   offset="0.9995"
   style="stop-color:#D554FF"
   id="stop69" />
		</linearGradient>
		
		
	
			
				<linearGradient
   id="SVGID_5_"
   gradientUnits="userSpaceOnUse"
   x1="451.16611"
   y1="1693.1064"
   x2="451.16611"
   y2="1224.0349"
   gradientTransform="matrix(0.9815,-0.1912,0.1912,0.9815,-171.0755,203.4616)">
				<stop
   offset="1.189722e-03"
   style="stop-color:#0062FF"
   id="stop74" />
				<stop
   offset="0.1512"
   style="stop-color:#2D5FFF"
   id="stop76" />
				<stop
   offset="0.3719"
   style="stop-color:#685BFF"
   id="stop78" />
				<stop
   offset="0.5751"
   style="stop-color:#9758FF"
   id="stop80" />
				<stop
   offset="0.7539"
   style="stop-color:#B956FF"
   id="stop82" />
				<stop
   offset="0.9015"
   style="stop-color:#CD55FF"
   id="stop84" />
				<stop
   offset="0.9995"
   style="stop-color:#D554FF"
   id="stop86" />
			</linearGradient>
			
			
				<linearGradient
   id="SVGID_6_"
   gradientUnits="userSpaceOnUse"
   x1="613.05548"
   y1="1693.1064"
   x2="613.05548"
   y2="1224.0349"
   gradientTransform="matrix(0.9815,-0.1912,0.1912,0.9815,-171.0755,203.4616)">
				<stop
   offset="1.189722e-03"
   style="stop-color:#0062FF"
   id="stop91" />
				<stop
   offset="0.1512"
   style="stop-color:#2D5FFF"
   id="stop93" />
				<stop
   offset="0.3719"
   style="stop-color:#685BFF"
   id="stop95" />
				<stop
   offset="0.5751"
   style="stop-color:#9758FF"
   id="stop97" />
				<stop
   offset="0.7539"
   style="stop-color:#B956FF"
   id="stop99" />
				<stop
   offset="0.9015"
   style="stop-color:#CD55FF"
   id="stop101" />
				<stop
   offset="0.9995"
   style="stop-color:#D554FF"
   id="stop103" />
			</linearGradient>
			
		
			
				<linearGradient
   id="SVGID_1_"
   gradientUnits="userSpaceOnUse"
   x1="222.9231"
   y1="1693.1064"
   x2="222.9231"
   y2="1224.0349"
   gradientTransform="matrix(0.9815,-0.1912,0.1912,0.9815,-171.0755,203.4616)">
				<stop
   offset="1.189722e-03"
   style="stop-color:#0062FF"
   id="stop4" />
				<stop
   offset="0.1512"
   style="stop-color:#2D5FFF"
   id="stop6" />
				<stop
   offset="0.3719"
   style="stop-color:#685BFF"
   id="stop8" />
				<stop
   offset="0.5751"
   style="stop-color:#9758FF"
   id="stop10" />
				<stop
   offset="0.7539"
   style="stop-color:#B956FF"
   id="stop12" />
				<stop
   offset="0.9015"
   style="stop-color:#CD55FF"
   id="stop14" />
				<stop
   offset="0.9995"
   style="stop-color:#D554FF"
   id="stop16" />
			</linearGradient>
			
			
				<linearGradient
   id="SVGID_2_"
   gradientUnits="userSpaceOnUse"
   x1="841.30151"
   y1="1693.1064"
   x2="841.30151"
   y2="1224.0349"
   gradientTransform="matrix(0.9815,-0.1912,0.1912,0.9815,-171.0755,203.4616)">
				<stop
   offset="1.189722e-03"
   style="stop-color:#0062FF"
   id="stop21" />
				<stop
   offset="0.1512"
   style="stop-color:#2D5FFF"
   id="stop23" />
				<stop
   offset="0.3719"
   style="stop-color:#685BFF"
   id="stop25" />
				<stop
   offset="0.5751"
   style="stop-color:#9758FF"
   id="stop27" />
				<stop
   offset="0.7539"
   style="stop-color:#B956FF"
   id="stop29" />
				<stop
   offset="0.9015"
   style="stop-color:#CD55FF"
   id="stop31" />
				<stop
   offset="0.9995"
   style="stop-color:#D554FF"
   id="stop33" />
			</linearGradient>
			
		</defs><sodipodi:namedview
   id="namedview133"
   pagecolor="#ffffff"
   bordercolor="#666666"
   borderopacity="1.0"
   inkscape:pageshadow="2"
   inkscape:pageopacity="0.0"
   inkscape:pagecheckerboard="0"
   showgrid="false"
   inkscape:zoom="0.1767767"
   inkscape:cx="1134.1993"
   inkscape:cy="1043.6896"
   inkscape:window-width="2187"
   inkscape:window-height="1261"
   inkscape:window-x="3087"
   inkscape:window-y="429"
   inkscape:window-maximized="0"
   inkscape:current-layer="Layer_1" />
<style
   type="text/css"
   id="style2">
	.st0{fill:url(#SVGID_1_);}
	.st1{fill:url(#SVGID_2_);}
	.st2{fill:url(#SVGID_3_);}
	.st3{fill:url(#SVGID_4_);}
	.st4{fill:url(#SVGID_5_);}
	.st5{fill:url(#SVGID_6_);}
	.st6{fill:#00255B;}
</style>
<path
   class="st0"
   d="m 84.044258,439.82417 c -35.02,5.03 -68.19,-18.26 -75.0300005,-53.37 l -8.03999998,-41.25 c -3.81000002,-19.58 3.81999998,-38.75 18.25000048,-50.56 0.48,2.94 1.01,5.88 1.58,8.79 9.73,49.97 31.54,96.96 63.24,136.39 z"
   id="path19"
   style="fill:#ffffff;fill-opacity:1" /><path
   class="st1"
   d="m 670.21426,214.81417 8.04,41.25 c 6.84,35.11 -15.17,69.15 -49.52,77.64 14.58,-48.44 17.15,-100.18 7.42,-150.15 -0.56,-2.88 -1.17,-5.81 -1.83,-8.74 6.79,2.1 13.05,5.57 18.43,10.14 8.73,7.41 15.09,17.74 17.46,29.86 z"
   id="path36"
   style="fill:#ffffff;fill-opacity:1" /><path
   class="st2"
   d="m 620.46426,176.09417 c -0.28,-1.21 -0.56,-2.42 -0.86,-3.63 -4.78,-19.66 -11.42,-38.41 -19.7,-56.13 -26.35,-6.21 -53.16,-10.97 -80.32,-14.22 -71,-8.479996 -144.42,-6.569996 -218.35,7.02 l -3.56,-43.109996 c 12.2,-7.6 19.07,-22.19 16.16,-37.14 -1.73,-8.86 -6.6,-16.31 -13.23,-21.4299997 -7.84,-6.06 -18.16,-8.83 -28.65,-6.79 -11.55,2.25 -20.7,9.8299997 -25.41,19.6899997 -3.18,6.67 -4.33,14.38 -2.81,22.18 2.91,14.95 14.76,25.89 28.91,28.36 l 12.89,41.289996 c -65.99,13.59 -128.09,35.72 -185.36,65.02 -24.360002,12.46 -47.860002,26.22 -70.400002,41.17 -1.75,20.97 -1.3,42.4 1.55,64 0.2,1.52 0.41,3.03 0.64,4.56 0.68,4.61 1.47,9.23 2.37,13.85 10.14,52.04 33.18,98.3 65.16,136.09 67.840002,80.17 175.880002,122.25 286.280002,100.74 110.4,-21.51 194.75,-101.08 227.52,-200.84 15.45,-47.04 19.45,-98.56 9.31,-150.6 -0.65,-3.37 -1.37,-6.74 -2.14,-10.08 z m -80.01,174.89 c -32.02,63.05 -91.73,111.22 -166.53,125.79 -74.8,14.57 -148.22,-7.65 -201.57,-54.08 -38.55,-33.53 -66.63,-79.71 -77.160002,-133.76 -0.97,-5 -1.78,-9.99 -2.43,-14.97 -1.23,-9.49 -1.89,-18.94 -1.98,-28.31 19.330002,-10.69 39.250002,-20.55 59.720002,-29.52 10.88,45.27 55.62,74.34 101.78,65.34 l 143.35,-27.93 c 46.15,-8.99 76.71,-52.73 69.8,-98.77 29.18,0.82 58.05,3.4 86.51,7.65 2.45,6.78 4.61,13.71 6.46,20.81 1.26,4.86 2.39,9.79 3.36,14.79 10.52,54.07 1.83,107.41 -21.31,152.96 z"
   id="path55"
   style="fill:#ffffff;fill-opacity:1" /><path
   class="st4"
   d="m 311.70426,355.55417 c 6.4,32.86 -7.33,63.19 -30.67,67.73 -23.34,4.55 -47.45,-18.41 -53.85,-51.27 -6.4,-32.86 7.33,-63.19 30.67,-67.74 23.34,-4.54 47.45,18.41 53.85,51.28 z"
   id="path89"
   style="fill:#ffffff;fill-opacity:1" /><path
   class="st5"
   d="m 470.60426,324.59417 c 6.4,32.86 -7.33,63.19 -30.67,67.73 -23.34,4.54 -47.45,-18.41 -53.85,-51.27 -6.4,-32.86 7.33,-63.19 30.67,-67.74 23.34,-4.54 47.45,18.42 53.85,51.28 z"
   id="path106"
   style="fill:#ffffff;fill-opacity:1" /><path
   class="st6"
   d="m 1038.2443,330.22417 c -2.88,14.89 -7.44,28.35 -13.71,40.36 -6.27,12.02 -14.17,22.34 -23.71,30.95 -9.54004,8.62 -20.57004,15.28 -33.11004,19.98 -12.54,4.7 -26.39,7.06 -41.54,7.06 -16.98,0 -32.85,-2.88 -47.61,-8.62 -14.76,-5.74 -27.5,-14.36 -38.2,-25.86 -10.72,-11.49 -19.14,-25.67 -25.28,-42.52 -6.14,-16.85 -9.21,-36.5 -9.21,-58.97 0,-21.94 2.81,-41.73 8.43,-59.36 5.62,-17.64 13.65,-32.52 24.1,-44.67 10.45,-12.15 23.18,-21.48 38.2,-28.02 15.02,-6.53 31.8,-9.79 50.35,-9.79 16.2,0 30.89,2.42 44.08,7.25 13.19,4.84 24.55,11.5 34.09004,19.98 9.53,8.49 17.1,18.48 22.73,29.98 5.61,11.5 9.07,23.77 10.38,36.83 h -54.47004 c -3.66,-14.89 -10.71,-26.45 -21.16,-34.68 -10.45,-8.23 -22.2,-12.34 -35.27,-12.34 -22.73,0 -39.45,8.17 -50.16,24.49 -10.71,16.33 -16.07,38.73 -16.07,67.2 0,29 5.29,51.53 15.87,67.59 10.58,16.07 26.45,24.1 47.61,24.1 16.2,0 29.19,-4.37 38.99,-13.13 9.8,-8.75 16.52,-21.36 20.18,-37.82 h 54.49004 z"
   id="path112"
   style="fill:#ffffff;fill-opacity:1" /><path
   class="st6"
   d="m 1171.0743,419.57417 c -1.57,-4.96 -2.62,-10.71 -3.13,-17.24 -6.01,6.79 -13.98,12.21 -23.9,16.26 -9.93,4.05 -21.42,6.07 -34.48,6.07 -22.2,0 -38.47,-4.9 -48.78,-14.7 -10.32,-9.79 -15.48,-22.53 -15.48,-38.2 0,-13.84 2.22,-24.88 6.66,-33.11 4.44,-8.23 10.58,-14.69 18.42,-19.4 7.84,-4.7 17.17,-8.16 28.02,-10.38 10.83,-2.22 22.66,-4.24 35.46,-6.07 12.79,-1.82 21.42,-4.24 25.86,-7.25 4.44,-3 6.66,-7.9 6.66,-14.7 0,-6.27 -2.94,-11.17 -8.82,-14.7 -5.88,-3.52 -13.78,-5.29 -23.7,-5.29 -11.76,0 -20.18,2.62 -25.28,7.84 -5.09,5.23 -8.29,12.15 -9.6,20.77 h -47.41 c 0.26,-9.93 1.89,-19.07 4.9,-27.43 3,-8.36 7.84,-15.54 14.5,-21.55 6.66,-6.01 15.34,-10.64 26.06,-13.91 10.71,-3.26 23.77,-4.9 39.19,-4.9 15.15,0 28.01,1.7 38.59,5.09 10.58,3.4 19.07,8.3 25.47,14.7 6.4,6.4 11.03,14.37 13.91,23.9 2.87,9.54 4.31,20.31 4.31,32.33 v 121.86 h -47.43 z m -3.52,-94.44 c -2.61,2.61 -6.4,4.7 -11.36,6.27 -4.97,1.57 -12.15,3.27 -21.55,5.09 -14.63,2.88 -24.68,6.53 -30.17,10.97 -5.49,4.45 -8.23,10.84 -8.23,19.2 0,14.37 8.23,21.55 24.69,21.55 6.53,0 12.6,-1.11 18.22,-3.33 5.62,-2.22 10.45,-5.22 14.5,-9.01 4.05,-3.78 7.31,-8.23 9.8,-13.32 2.48,-5.09 3.72,-10.51 3.72,-16.26 z"
   id="path114"
   style="fill:#ffffff;fill-opacity:1" /><path
   class="st6"
   d="m 1356.8043,285.16417 c -1.31,-9.4 -4.7,-16 -10.19,-19.79 -5.49,-3.79 -14.11,-5.68 -25.86,-5.68 -9.67,0 -17.11,1.24 -22.34,3.72 -5.23,2.49 -7.84,6.6 -7.84,12.34 0,5.75 2.61,10.13 7.84,13.13 5.22,3.01 13.06,5.94 23.51,8.82 10.97,3.13 21.42,5.94 31.35,8.42 9.93,2.49 18.67,5.16 26.25,8.03 10.19,4.18 18.02,9.86 23.51,17.05 5.49,7.19 8.23,17.04 8.23,29.58 0,20.12 -7.12,35.79 -21.36,47.02 -14.24,11.23 -35.2,16.85 -62.89,16.85 -29.78,0 -52.57,-6.27 -68.38,-18.81 -15.81,-12.54 -23.97,-28.61 -24.49,-48.2 h 52.5 c 0,9.15 3.53,16.2 10.58,21.16 7.06,4.97 16.85,7.45 29.39,7.45 9.14,0 17.1,-1.5 23.9,-4.51 6.79,-3 10.19,-8.16 10.19,-15.48 0,-6.79 -3.07,-11.62 -9.21,-14.5 -6.14,-2.87 -13.39,-5.35 -21.75,-7.45 -16.2,-3.92 -29.26,-7.45 -39.19,-10.58 -9.93,-3.13 -18.29,-6.92 -25.08,-11.36 -9.15,-5.75 -15.48,-12.28 -19,-19.59 -3.53,-7.31 -5.29,-15.28 -5.29,-23.9 0,-8.09 1.43,-15.67 4.31,-22.73 2.87,-7.05 7.57,-13.13 14.11,-18.22 6.53,-5.09 14.95,-9.07 25.28,-11.95 10.32,-2.87 22.79,-4.31 37.42,-4.31 27.95,0 48.52,5.36 61.72,16.07 13.19,10.72 20.43,26.52 21.74,47.41 h -48.96 z"
   id="path116"
   style="fill:#ffffff;fill-opacity:1" /><path
   class="st6"
   d="m 1532.7343,292.61417 h 47.41 v 54.86 c 0,10.19 -1.51,19.92 -4.51,29.19 -3.01,9.28 -7.71,17.5 -14.1,24.69 -6.4,7.19 -14.5,12.87 -24.3,17.04 -9.79,4.18 -21.49,6.27 -35.07,6.27 -14.1,0 -26.12,-2.09 -36.05,-6.27 -9.93,-4.18 -18.09,-9.79 -24.49,-16.85 -6.4,-7.05 -11.04,-15.28 -13.91,-24.68 -2.88,-9.4 -4.31,-19.33 -4.31,-29.78 v -172.41 h 50.16 v 52.11 h 106.58 v 36.05 h -106.58 v 79.15 c 0,12.28 2.28,21.75 6.85,28.41 4.57,6.66 12.08,9.99 22.53,9.99 10.19,0 17.69,-3.26 22.53,-9.79 4.83,-6.53 7.25,-15.8 7.25,-27.82 v -50.16 z"
   id="path118"
   style="fill:#ffffff;fill-opacity:1" /><path
   class="st6"
   d="m 1801.1443,419.57417 v -178.29 l -48.59,178.29 h -54.07 l -48.2,-177.5 v 177.5 h -50.55 v -260.18 h 79.93 l 47.02,190.83 47.02,-190.83 h 78.37 v 260.18 z"
   id="path120"
   style="fill:#ffffff;fill-opacity:1" /><path
   class="st6"
   d="m 1993.9243,419.57417 c -1.57,-4.96 -2.62,-10.71 -3.13,-17.24 -6.01,6.79 -13.98,12.21 -23.9,16.26 -9.93,4.05 -21.42,6.07 -34.48,6.07 -22.21,0 -38.47,-4.9 -48.78,-14.7 -10.32,-9.79 -15.48,-22.53 -15.48,-38.2 0,-13.84 2.22,-24.88 6.66,-33.11 4.44,-8.23 10.58,-14.69 18.42,-19.4 7.84,-4.7 17.17,-8.16 28.02,-10.38 10.83,-2.22 22.66,-4.24 35.46,-6.07 12.79,-1.82 21.42,-4.24 25.86,-7.25 4.44,-3 6.66,-7.9 6.66,-14.7 0,-6.27 -2.94,-11.17 -8.82,-14.7 -5.88,-3.52 -13.78,-5.29 -23.71,-5.29 -11.76,0 -20.18,2.62 -25.28,7.84 -5.09,5.23 -8.29,12.15 -9.6,20.77 h -47.41 c 0.26,-9.93 1.89,-19.07 4.9,-27.43 3,-8.36 7.84,-15.54 14.5,-21.55 6.66,-6.01 15.34,-10.64 26.06,-13.91 10.71,-3.26 23.77,-4.9 39.19,-4.9 15.15,0 28.01,1.7 38.59,5.09 10.58,3.4 19.07,8.3 25.47,14.7 6.4,6.4 11.03,14.37 13.91,23.9 2.87,9.54 4.31,20.31 4.31,32.33 v 121.86 h -47.42 z m -3.52,-94.44 c -2.61,2.61 -6.4,4.7 -11.36,6.27 -4.97,1.57 -12.15,3.27 -21.55,5.09 -14.63,2.88 -24.68,6.53 -30.17,10.97 -5.49,4.45 -8.23,10.84 -8.23,19.2 0,14.37 8.23,21.55 24.69,21.55 6.53,0 12.6,-1.11 18.22,-3.33 5.62,-2.22 10.45,-5.22 14.5,-9.01 4.05,-3.78 7.31,-8.23 9.8,-13.32 2.48,-5.09 3.72,-10.51 3.72,-16.26 z"
   id="path122"
   style="fill:#ffffff;fill-opacity:1" /><path
   class="st6"
   d="m 2172.9943,292.61417 h 47.41 v 54.86 c 0,10.19 -1.51,19.92 -4.51,29.19 -3.01,9.28 -7.71,17.5 -14.1,24.69 -6.4,7.19 -14.5,12.87 -24.3,17.04 -9.79,4.18 -21.49,6.27 -35.07,6.27 -14.1,0 -26.12,-2.09 -36.05,-6.27 -9.93,-4.18 -18.09,-9.79 -24.49,-16.85 -6.4,-7.05 -11.04,-15.28 -13.91,-24.68 -2.88,-9.4 -4.31,-19.33 -4.31,-29.78 v -172.41 h 50.16 v 52.11 h 106.58 v 36.05 h -106.58 v 79.15 c 0,12.28 2.28,21.75 6.86,28.41 4.57,6.66 12.08,9.99 22.53,9.99 10.19,0 17.69,-3.26 22.53,-9.79 4.83,-6.53 7.25,-15.8 7.25,-27.82 z"
   id="path124"
   style="fill:#ffffff;fill-opacity:1" /><path
   class="st6"
   d="m 2287.8043,336.49417 c 0.79,14.63 5.03,26.25 12.73,34.88 7.7,8.62 17.83,12.93 30.37,12.93 8.35,0 15.73,-1.89 22.14,-5.68 6.4,-3.79 10.51,-9.08 12.34,-15.87 h 52.5 c -6.01,19.86 -16.46,35.14 -31.35,45.85 -14.89,10.71 -32.66,16.07 -53.29,16.07 -64.26,0 -96.39,-35 -96.39,-105.02 0,-14.89 2.09,-28.34 6.27,-40.36 4.18,-12.01 10.25,-22.34 18.22,-30.96 7.97,-8.62 17.7,-15.21 29.19,-19.79 11.49,-4.57 24.69,-6.86 39.58,-6.86 29.78,0 52.31,9.54 67.59,28.61 15.28,19.07 22.92,47.8 22.92,86.2 z m 80.33,-32.13 c -0.26,-7.05 -1.51,-13.26 -3.72,-18.61 -2.22,-5.35 -5.16,-9.79 -8.82,-13.32 -3.66,-3.52 -7.84,-6.13 -12.54,-7.84 -4.7,-1.69 -9.54,-2.55 -14.5,-2.55 -10.19,0 -19,3.72 -26.45,11.17 -7.44,7.44 -11.69,17.83 -12.73,31.15 z"
   id="path126"
   style="fill:#ffffff;fill-opacity:1" />
</svg>
