<?xml version="1.0" encoding="UTF-8" standalone="no"?>
<!-- Generator: Adobe Illustrator 25.2.0, SVG Export Plug-In . SVG Version: 6.00 Build 0)  -->

<svg
   version="1.1"
   id="Layer_1"
   x="0px"
   y="0px"
   viewBox="0 0 679.49952 543.20129"
   xml:space="preserve"
   sodipodi:docname="logo-dark.svg"
   width="679.49951"
   height="543.20129"
   inkscape:version="1.1.1 (3bf5ae0d25, 2021-09-20)"
   xmlns:inkscape="http://www.inkscape.org/namespaces/inkscape"
   xmlns:sodipodi="http://sodipodi.sourceforge.net/DTD/sodipodi-0.dtd"
   xmlns="http://www.w3.org/2000/svg"
   xmlns:svg="http://www.w3.org/2000/svg"><defs
   id="defs135">
	
	

		
		
		
		
		
		
		
		
	</defs><sodipodi:namedview
   id="namedview133"
   pagecolor="#ffffff"
   bordercolor="#666666"
   borderopacity="1.0"
   inkscape:pageshadow="2"
   inkscape:pageopacity="0.0"
   inkscape:pagecheckerboard="0"
   showgrid="false"
   inkscape:zoom="0.291"
   inkscape:cx="1152.921"
   inkscape:cy="273.19588"
   inkscape:window-width="3840"
   inkscape:window-height="2097"
   inkscape:window-x="1912"
   inkscape:window-y="-8"
   inkscape:window-maximized="1"
   inkscape:current-layer="Layer_1" />
<style
   type="text/css"
   id="style2">
	.st0{fill:url(#SVGID_1_);}
	.st1{fill:url(#SVGID_2_);}
	.st2{fill:url(#SVGID_3_);}
	.st3{fill:url(#SVGID_4_);}
	.st4{fill:url(#SVGID_5_);}
	.st5{fill:url(#SVGID_6_);}
	.st6{fill:#00255B;}
</style>
<g
   id="g110"
   transform="translate(-289.68574,-1228.3858)">
		<g
   id="g38">
			
				<linearGradient
   id="SVGID_1_"
   gradientUnits="userSpaceOnUse"
   x1="222.9231"
   y1="1693.1064"
   x2="222.9231"
   y2="1224.0349"
   gradientTransform="matrix(0.9815,-0.1912,0.1912,0.9815,-171.0755,203.4616)">
				<stop
   offset="1.189722e-03"
   style="stop-color:#0062FF"
   id="stop4" />
				<stop
   offset="0.1512"
   style="stop-color:#2D5FFF"
   id="stop6" />
				<stop
   offset="0.3719"
   style="stop-color:#685BFF"
   id="stop8" />
				<stop
   offset="0.5751"
   style="stop-color:#9758FF"
   id="stop10" />
				<stop
   offset="0.7539"
   style="stop-color:#B956FF"
   id="stop12" />
				<stop
   offset="0.9015"
   style="stop-color:#CD55FF"
   id="stop14" />
				<stop
   offset="0.9995"
   style="stop-color:#D554FF"
   id="stop16" />
			</linearGradient>
			<path
   class="st0"
   d="m 373.73,1668.21 c -35.02,5.03 -68.19,-18.26 -75.03,-53.37 l -8.04,-41.25 c -3.81,-19.58 3.82,-38.75 18.25,-50.56 0.48,2.94 1.01,5.88 1.58,8.79 9.73,49.97 31.54,96.96 63.24,136.39 z"
   id="path19"
   style="fill:url(#SVGID_1_)" />
			
				<linearGradient
   id="SVGID_2_"
   gradientUnits="userSpaceOnUse"
   x1="841.30151"
   y1="1693.1064"
   x2="841.30151"
   y2="1224.0349"
   gradientTransform="matrix(0.9815,-0.1912,0.1912,0.9815,-171.0755,203.4616)">
				<stop
   offset="1.189722e-03"
   style="stop-color:#0062FF"
   id="stop21" />
				<stop
   offset="0.1512"
   style="stop-color:#2D5FFF"
   id="stop23" />
				<stop
   offset="0.3719"
   style="stop-color:#685BFF"
   id="stop25" />
				<stop
   offset="0.5751"
   style="stop-color:#9758FF"
   id="stop27" />
				<stop
   offset="0.7539"
   style="stop-color:#B956FF"
   id="stop29" />
				<stop
   offset="0.9015"
   style="stop-color:#CD55FF"
   id="stop31" />
				<stop
   offset="0.9995"
   style="stop-color:#D554FF"
   id="stop33" />
			</linearGradient>
			<path
   class="st1"
   d="m 959.9,1443.2 8.04,41.25 c 6.84,35.11 -15.17,69.15 -49.52,77.64 14.58,-48.44 17.15,-100.18 7.42,-150.15 -0.56,-2.88 -1.17,-5.81 -1.83,-8.74 6.79,2.1 13.05,5.57 18.43,10.14 8.73,7.41 15.09,17.74 17.46,29.86 z"
   id="path36"
   style="fill:url(#SVGID_2_)" />
		</g>
		
			<linearGradient
   id="SVGID_3_"
   gradientUnits="userSpaceOnUse"
   x1="532.11078"
   y1="1693.1064"
   x2="532.11078"
   y2="1224.0349"
   gradientTransform="matrix(0.9815,-0.1912,0.1912,0.9815,-171.0755,203.4616)">
			<stop
   offset="1.189722e-03"
   style="stop-color:#0062FF"
   id="stop40" />
			<stop
   offset="0.1512"
   style="stop-color:#2D5FFF"
   id="stop42" />
			<stop
   offset="0.3719"
   style="stop-color:#685BFF"
   id="stop44" />
			<stop
   offset="0.5751"
   style="stop-color:#9758FF"
   id="stop46" />
			<stop
   offset="0.7539"
   style="stop-color:#B956FF"
   id="stop48" />
			<stop
   offset="0.9015"
   style="stop-color:#CD55FF"
   id="stop50" />
			<stop
   offset="0.9995"
   style="stop-color:#D554FF"
   id="stop52" />
		</linearGradient>
		<path
   class="st2"
   d="m 910.15,1404.48 c -0.28,-1.21 -0.56,-2.42 -0.86,-3.63 -4.78,-19.66 -11.42,-38.41 -19.7,-56.13 -26.35,-6.21 -53.16,-10.97 -80.32,-14.22 -71,-8.48 -144.42,-6.57 -218.35,7.02 l -3.56,-43.11 c 12.2,-7.6 19.07,-22.19 16.16,-37.14 -1.73,-8.86 -6.6,-16.31 -13.23,-21.43 -7.84,-6.06 -18.16,-8.83 -28.65,-6.79 -11.55,2.25 -20.7,9.83 -25.41,19.69 -3.18,6.67 -4.33,14.38 -2.81,22.18 2.91,14.95 14.76,25.89 28.91,28.36 l 12.89,41.29 c -65.99,13.59 -128.09,35.72 -185.36,65.02 -24.36,12.46 -47.86,26.22 -70.4,41.17 -1.75,20.97 -1.3,42.4 1.55,64 0.2,1.52 0.41,3.03 0.64,4.56 0.68,4.61 1.47,9.23 2.37,13.85 10.14,52.04 33.18,98.3 65.16,136.09 67.84,80.17 175.88,122.25 286.28,100.74 110.4,-21.51 194.75,-101.08 227.52,-200.84 15.45,-47.04 19.45,-98.56 9.31,-150.6 -0.65,-3.37 -1.37,-6.74 -2.14,-10.08 z m -80.01,174.89 c -32.02,63.05 -91.73,111.22 -166.53,125.79 -74.8,14.57 -148.22,-7.65 -201.57,-54.08 -38.55,-33.53 -66.63,-79.71 -77.16,-133.76 -0.97,-5 -1.78,-9.99 -2.43,-14.97 -1.23,-9.49 -1.89,-18.94 -1.98,-28.31 19.33,-10.69 39.25,-20.55 59.72,-29.52 10.88,45.27 55.62,74.34 101.78,65.34 l 143.35,-27.93 c 46.15,-8.99 76.71,-52.73 69.8,-98.77 29.18,0.82 58.05,3.4 86.51,7.65 2.45,6.78 4.61,13.71 6.46,20.81 1.26,4.86 2.39,9.79 3.36,14.79 10.52,54.07 1.83,107.41 -21.31,152.96 z"
   id="path55"
   style="fill:url(#SVGID_3_)" />
		
			<linearGradient
   id="SVGID_4_"
   gradientUnits="userSpaceOnUse"
   x1="532.11078"
   y1="1693.1064"
   x2="532.11078"
   y2="1224.0349"
   gradientTransform="matrix(0.9815,-0.1912,0.1912,0.9815,-171.0755,203.4616)">
			<stop
   offset="1.189722e-03"
   style="stop-color:#0062FF"
   id="stop57" />
			<stop
   offset="0.1512"
   style="stop-color:#2D5FFF"
   id="stop59" />
			<stop
   offset="0.3719"
   style="stop-color:#685BFF"
   id="stop61" />
			<stop
   offset="0.5751"
   style="stop-color:#9758FF"
   id="stop63" />
			<stop
   offset="0.7539"
   style="stop-color:#B956FF"
   id="stop65" />
			<stop
   offset="0.9015"
   style="stop-color:#CD55FF"
   id="stop67" />
			<stop
   offset="0.9995"
   style="stop-color:#D554FF"
   id="stop69" />
		</linearGradient>
		<path
   class="st3"
   d="m 910.15,1404.48 c -0.28,-1.21 -0.56,-2.42 -0.86,-3.63 -4.78,-19.66 -11.42,-38.41 -19.7,-56.13 -26.35,-6.21 -53.16,-10.97 -80.32,-14.22 -71,-8.48 -144.42,-6.57 -218.35,7.02 l -3.56,-43.11 c 12.2,-7.6 19.07,-22.19 16.16,-37.14 -1.73,-8.86 -6.6,-16.31 -13.23,-21.43 -7.84,-6.06 -18.16,-8.83 -28.65,-6.79 -11.55,2.25 -20.7,9.83 -25.41,19.69 -3.18,6.67 -4.33,14.38 -2.81,22.18 2.91,14.95 14.76,25.89 28.91,28.36 l 12.89,41.29 c -65.99,13.59 -128.09,35.72 -185.36,65.02 -24.36,12.46 -47.86,26.22 -70.4,41.17 -1.75,20.97 -1.3,42.4 1.55,64 0.2,1.52 0.41,3.03 0.64,4.56 0.68,4.61 1.47,9.23 2.37,13.85 10.14,52.04 33.18,98.3 65.16,136.09 67.84,80.17 175.88,122.25 286.28,100.74 110.4,-21.51 194.75,-101.08 227.52,-200.84 15.45,-47.04 19.45,-98.56 9.31,-150.6 -0.65,-3.37 -1.37,-6.74 -2.14,-10.08 z m -80.01,174.89 c -32.02,63.05 -91.73,111.22 -166.53,125.79 -74.8,14.57 -148.22,-7.65 -201.57,-54.08 -38.55,-33.53 -66.63,-79.71 -77.16,-133.76 -0.97,-5 -1.78,-9.99 -2.43,-14.97 -1.23,-9.49 -1.89,-18.94 -1.98,-28.31 19.33,-10.69 39.25,-20.55 59.72,-29.52 10.88,45.27 55.62,74.34 101.78,65.34 l 143.35,-27.93 c 46.15,-8.99 76.71,-52.73 69.8,-98.77 29.18,0.82 58.05,3.4 86.51,7.65 2.45,6.78 4.61,13.71 6.46,20.81 1.26,4.86 2.39,9.79 3.36,14.79 10.52,54.07 1.83,107.41 -21.31,152.96 z"
   id="path72"
   style="fill:url(#SVGID_4_)" />
		<g
   id="g108">
			
				<linearGradient
   id="SVGID_5_"
   gradientUnits="userSpaceOnUse"
   x1="451.16611"
   y1="1693.1064"
   x2="451.16611"
   y2="1224.0349"
   gradientTransform="matrix(0.9815,-0.1912,0.1912,0.9815,-171.0755,203.4616)">
				<stop
   offset="1.189722e-03"
   style="stop-color:#0062FF"
   id="stop74" />
				<stop
   offset="0.1512"
   style="stop-color:#2D5FFF"
   id="stop76" />
				<stop
   offset="0.3719"
   style="stop-color:#685BFF"
   id="stop78" />
				<stop
   offset="0.5751"
   style="stop-color:#9758FF"
   id="stop80" />
				<stop
   offset="0.7539"
   style="stop-color:#B956FF"
   id="stop82" />
				<stop
   offset="0.9015"
   style="stop-color:#CD55FF"
   id="stop84" />
				<stop
   offset="0.9995"
   style="stop-color:#D554FF"
   id="stop86" />
			</linearGradient>
			<path
   class="st4"
   d="m 601.39,1583.94 c 6.4,32.86 -7.33,63.19 -30.67,67.73 -23.34,4.55 -47.45,-18.41 -53.85,-51.27 -6.4,-32.86 7.33,-63.19 30.67,-67.74 23.34,-4.54 47.45,18.41 53.85,51.28 z"
   id="path89"
   style="fill:url(#SVGID_5_)" />
			
				<linearGradient
   id="SVGID_6_"
   gradientUnits="userSpaceOnUse"
   x1="613.05548"
   y1="1693.1064"
   x2="613.05548"
   y2="1224.0349"
   gradientTransform="matrix(0.9815,-0.1912,0.1912,0.9815,-171.0755,203.4616)">
				<stop
   offset="1.189722e-03"
   style="stop-color:#0062FF"
   id="stop91" />
				<stop
   offset="0.1512"
   style="stop-color:#2D5FFF"
   id="stop93" />
				<stop
   offset="0.3719"
   style="stop-color:#685BFF"
   id="stop95" />
				<stop
   offset="0.5751"
   style="stop-color:#9758FF"
   id="stop97" />
				<stop
   offset="0.7539"
   style="stop-color:#B956FF"
   id="stop99" />
				<stop
   offset="0.9015"
   style="stop-color:#CD55FF"
   id="stop101" />
				<stop
   offset="0.9995"
   style="stop-color:#D554FF"
   id="stop103" />
			</linearGradient>
			<path
   class="st5"
   d="m 760.29,1552.98 c 6.4,32.86 -7.33,63.19 -30.67,67.73 -23.34,4.54 -47.45,-18.41 -53.85,-51.27 -6.4,-32.86 7.33,-63.19 30.67,-67.74 23.34,-4.54 47.45,18.42 53.85,51.28 z"
   id="path106"
   style="fill:url(#SVGID_6_)" />
		</g>
	</g>
</svg>
